<svg id="visual" viewBox="0 0 960 540" width="960" height="540" xmlns="http://www.w3.org/2000/svg" xmlns:xlink="http://www.w3.org/1999/xlink" version="1.1"><rect x="0" y="0" width="960" height="540" fill="#001220"></rect><defs><linearGradient id="grad1_0" x1="43.8%" y1="0%" x2="100%" y2="100%"><stop offset="14.444444444444446%" stop-color="#009473" stop-opacity="1"></stop><stop offset="85.55555555555554%" stop-color="#009473" stop-opacity="1"></stop></linearGradient></defs><defs><linearGradient id="grad1_1" x1="43.8%" y1="0%" x2="100%" y2="100%"><stop offset="14.444444444444446%" stop-color="#009473" stop-opacity="1"></stop><stop offset="85.55555555555554%" stop-color="#00726f" stop-opacity="1"></stop></linearGradient></defs><defs><linearGradient id="grad1_2" x1="43.8%" y1="0%" x2="100%" y2="100%"><stop offset="14.444444444444446%" stop-color="#00505e" stop-opacity="1"></stop><stop offset="85.55555555555554%" stop-color="#00726f" stop-opacity="1"></stop></linearGradient></defs><defs><linearGradient id="grad1_3" x1="43.8%" y1="0%" x2="100%" y2="100%"><stop offset="14.444444444444446%" stop-color="#00505e" stop-opacity="1"></stop><stop offset="85.55555555555554%" stop-color="#002f42" stop-opacity="1"></stop></linearGradient></defs><defs><linearGradient id="grad1_4" x1="43.8%" y1="0%" x2="100%" y2="100%"><stop offset="14.444444444444446%" stop-color="#001220" stop-opacity="1"></stop><stop offset="85.55555555555554%" stop-color="#002f42" stop-opacity="1"></stop></linearGradient></defs><defs><linearGradient id="grad2_0" x1="0%" y1="0%" x2="56.3%" y2="100%"><stop offset="14.444444444444446%" stop-color="#009473" stop-opacity="1"></stop><stop offset="85.55555555555554%" stop-color="#009473" stop-opacity="1"></stop></linearGradient></defs><defs><linearGradient id="grad2_1" x1="0%" y1="0%" x2="56.3%" y2="100%"><stop offset="14.444444444444446%" stop-color="#00726f" stop-opacity="1"></stop><stop offset="85.55555555555554%" stop-color="#009473" stop-opacity="1"></stop></linearGradient></defs><defs><linearGradient id="grad2_2" x1="0%" y1="0%" x2="56.3%" y2="100%"><stop offset="14.444444444444446%" stop-color="#00726f" stop-opacity="1"></stop><stop offset="85.55555555555554%" stop-color="#00505e" stop-opacity="1"></stop></linearGradient></defs><defs><linearGradient id="grad2_3" x1="0%" y1="0%" x2="56.3%" y2="100%"><stop offset="14.444444444444446%" stop-color="#002f42" stop-opacity="1"></stop><stop offset="85.55555555555554%" stop-color="#00505e" stop-opacity="1"></stop></linearGradient></defs><defs><linearGradient id="grad2_4" x1="0%" y1="0%" x2="56.3%" y2="100%"><stop offset="14.444444444444446%" stop-color="#002f42" stop-opacity="1"></stop><stop offset="85.55555555555554%" stop-color="#001220" stop-opacity="1"></stop></linearGradient></defs><g transform="translate(960, 0)"><path d="M0 486C-69.5 485.6 -139 485.2 -186 449C-232.9 412.8 -257.3 340.8 -289.9 289.9C-322.5 239.1 -363.2 209.3 -397.3 164.6C-431.3 119.8 -458.7 59.9 -486 0L0 0Z" fill="#002031"></path><path d="M0 388.8C-55.6 388.5 -111.2 388.2 -148.8 359.2C-186.4 330.2 -205.9 272.6 -231.9 231.9C-258 191.2 -290.6 167.5 -317.8 131.6C-345 95.8 -366.9 47.9 -388.8 0L0 0Z" fill="#003f51"></path><path d="M0 291.6C-41.7 291.4 -83.4 291.1 -111.6 269.4C-139.8 247.7 -154.4 204.5 -173.9 173.9C-193.5 143.4 -217.9 125.6 -238.4 98.7C-258.8 71.9 -275.2 35.9 -291.6 0L0 0Z" fill="#006168"></path><path d="M0 194.4C-27.8 194.2 -55.6 194.1 -74.4 179.6C-93.2 165.1 -102.9 136.3 -116 116C-129 95.6 -145.3 83.7 -158.9 65.8C-172.5 47.9 -183.5 24 -194.4 0L0 0Z" fill="#008372"></path><path d="M0 97.2C-13.9 97.1 -27.8 97 -37.2 89.8C-46.6 82.6 -51.5 68.2 -58 58C-64.5 47.8 -72.6 41.9 -79.5 32.9C-86.3 24 -91.7 12 -97.2 0L0 0Z" fill="#009473"></path></g><g transform="translate(0, 540)"><path d="M0 -486C48.3 -445.2 96.5 -404.5 160.7 -388C224.9 -371.6 305 -379.4 343.7 -343.7C382.3 -307.9 379.5 -228.7 396.3 -164.2C413.2 -99.6 449.6 -49.8 486 0L0 0Z" fill="#002031"></path><path d="M0 -388.8C38.6 -356.2 77.2 -323.6 128.6 -310.4C179.9 -297.2 244 -303.5 274.9 -274.9C305.8 -246.4 303.6 -183 317.1 -131.3C330.5 -79.7 359.7 -39.9 388.8 0L0 0Z" fill="#003f51"></path><path d="M0 -291.6C29 -267.1 57.9 -242.7 96.4 -232.8C134.9 -222.9 183 -227.6 206.2 -206.2C229.4 -184.8 227.7 -137.2 237.8 -98.5C247.9 -59.8 269.7 -29.9 291.6 0L0 0Z" fill="#006168"></path><path d="M0 -194.4C19.3 -178.1 38.6 -161.8 64.3 -155.2C90 -148.6 122 -151.7 137.5 -137.5C152.9 -123.2 151.8 -91.5 158.5 -65.7C165.3 -39.9 179.8 -19.9 194.4 0L0 0Z" fill="#008372"></path><path d="M0 -97.2C9.7 -89 19.3 -80.9 32.1 -77.6C45 -74.3 61 -75.9 68.7 -68.7C76.5 -61.6 75.9 -45.7 79.3 -32.8C82.6 -19.9 89.9 -10 97.2 0L0 0Z" fill="#009473"></path></g></svg>